<?xml version="1.0" encoding="UTF-8" standalone="no"?>
<!-- Created with Inkscape (http://www.inkscape.org/) -->

<svg
   xmlns:dc="http://purl.org/dc/elements/1.1/"
   xmlns:cc="http://creativecommons.org/ns#"
   xmlns:rdf="http://www.w3.org/1999/02/22-rdf-syntax-ns#"
   xmlns:svg="http://www.w3.org/2000/svg"
   xmlns="http://www.w3.org/2000/svg"
   version="1.1"
   width="209"
   height="276"
   id="svg3134">
  <metadata
     id="metadata3140">
    <rdf:RDF>
      <cc:Work
         rdf:about="">
        <dc:format>image/svg+xml</dc:format>
        <dc:type
           rdf:resource="http://purl.org/dc/dcmitype/StillImage" />
        <dc:title></dc:title>
      </cc:Work>
    </rdf:RDF>
  </metadata>
  <defs
     id="defs3138" />
  <path
     d="m 70.421686,275.93681 c -0.74409,-2.83387 -0.68676,-9 0.0837,-9 0.5412,0 0.984,0.675 0.984,1.5 0,0.825 0.45,1.5 1,1.5 1.46044,0 1.2217,2.32462 -0.4682,4.55887 -0.80751,1.06762 -1.52727,1.71613 -1.59948,1.44113 z m 5.97327,-1.51302 c -0.32693,-1.10715 -0.23563,-4.93215 0.20287,-8.5 0.4385,-3.56784 0.60061,-7.16198 0.36025,-7.98698 -0.24037,-0.825 -0.0328,-2.85 0.46118,-4.5 0.77977,-2.60444 0.8923,-2.2748 0.85345,2.5 -0.0743,9.12581 -1.24331,20.63556 -1.87775,18.48698 z m 48.761074,-0.15365 c -0.36667,-0.36666 -0.66667,-1.13166 -0.66667,-1.7 0,-0.6266 0.46577,-0.56756 1.18333,0.15 0.65084,0.65084 0.95084,1.41584 0.66667,1.7 -0.28417,0.28417 -0.81667,0.21667 -1.18333,-0.15 z m 40.41166,-1.187 c -0.65186,-1.218 -0.71284,-2.25418 -0.15302,-2.60016 0.51189,-0.31637 1.22919,0.36524 1.59401,1.51467 0.90068,2.83781 -0.0998,3.59149 -1.44099,1.08549 z m 24.46739,-2.07237 c -0.36986,-0.59845 0.0425,-1.36246 0.91643,-1.69781 1.17903,-0.45243 1.31006,-0.94571 0.50793,-1.91221 -0.80531,-0.97035 -0.62057,-1.57034 0.72448,-2.35281 0.993,-0.57767 1.33295,-1.064 0.75545,-1.08072 -0.5775,-0.0167 -1.55079,0.47038 -2.16287,1.08246 -1.36473,1.36473 -3.28713,0.32441 -3.28713,-1.77888 0,-0.98815 0.56125,-1.3326 1.55194,-0.95243 0.88992,0.34149 1.29132,0.17385 0.94098,-0.39301 -0.33602,-0.5437 -1.2594,-0.98855 -2.05194,-0.98855 -0.99892,0 -1.44098,-1.15245 -1.44098,-3.7566 0,-2.06613 -0.41859,-5.21613 -0.93019,-7 -0.73982,-2.5796 -0.63749,-3.2434 0.5,-3.2434 0.99436,0 1.43019,1.18162 1.43019,3.87756 0,2.24105 0.63836,4.40734 1.51254,5.13285 1.32504,1.09968 1.48,0.52602 1.25,-4.62756 -0.1444,-3.23557 0.1578,-6.10785 0.67155,-6.38285 1.84741,-0.98888 6.40488,8.2722 6.48731,13.18261 0.0659,3.92603 0.44214,4.8063 2.3286,5.44813 1.2375,0.42103 2.5875,0.67635 3,0.56739 2.1246,-0.56125 0.2727,1.85196 -3.16908,4.12962 -4.70426,3.11314 -8.61274,4.23881 -9.53521,2.74621 z m -22.46676,-5.49063 c -0.0434,-1.05416 0.19292,-1.64479 0.52522,-1.3125 0.33229,0.33229 0.36781,1.19479 0.0789,1.91667 -0.31922,0.79773 -0.55618,0.56078 -0.60416,-0.60417 z m 34.92105,-9.02431 c 0,-1.75653 0.60006,-2.01516 1.45729,-0.62812 0.31644,0.512 0.11799,1.21356 -0.44098,1.55902 -0.55897,0.34546 -1.01631,-0.0734 -1.01631,-0.9309 z M 69.568306,254.52014 c -0.0434,-1.05416 0.19293,-1.64479 0.52522,-1.3125 0.33229,0.33229 0.36782,1.19479 0.0789,1.91667 -0.31922,0.79773 -0.55618,0.56078 -0.60416,-0.60417 z m 4,0.27366 c -0.0434,-0.90366 -0.75394,-1.90203 -1.57894,-2.21862 -1.65636,-0.6356 -2.06262,-2.63837 -0.53519,-2.63837 1.33155,0 3.27306,3.84495 2.67899,5.30544 -0.28016,0.68874 -0.51934,0.49885 -0.56486,-0.44845 z m 3.91871,-9.85699 c -0.38906,-2.98601 -0.1126,-8.6812 0.9466,-19.5 l 0.78322,-8 0.006,7.5 c 0.007,8.8897 -1.26842,23.58394 -1.73538,20 z m -7.83976,-7 c 0,-1.375 0.22697,-1.9375 0.50439,-1.25 0.27741,0.6875 0.27741,1.8125 0,2.5 -0.27742,0.6875 -0.50439,0.125 -0.50439,-1.25 z m 136.921064,0.58333 c -0.0434,-1.05416 0.19292,-1.64479 0.52522,-1.3125 0.33229,0.33229 0.36781,1.19479 0.0789,1.91667 -0.31922,0.79773 -0.55618,0.56078 -0.60416,-0.60417 z M 72.617476,235.03715 c -0.75453,-0.47797 -1.16743,-1.48238 -0.91755,-2.23202 0.31643,-0.94929 0.81939,-0.68086 1.65707,0.88434 1.32968,2.48454 1.25887,2.61358 -0.73952,1.34768 z m 132.950844,-0.51701 c -0.0434,-1.05416 0.19292,-1.64479 0.52522,-1.3125 0.33229,0.33229 0.36781,1.19479 0.0789,1.91667 -0.31922,0.79773 -0.55618,0.56078 -0.60416,-0.60417 z M 73.568306,220.79522 c -0.0434,-0.90288 -1.12894,-1.90513 -2.41228,-2.22722 -2.02693,-0.50873 -3.46667,-3.63119 -1.67431,-3.63119 1.43799,0 5.18951,4.93823 4.69375,6.17852 -0.36815,0.92104 -0.55213,0.82404 -0.60716,-0.32011 z m 129.682074,-6.35841 c -0.40645,-2.2 -0.69465,-5.8 -0.64044,-8 l 0.0986,-4 0.90878,4.5 c 0.49983,2.475 0.78802,6.075 0.64043,8 l -0.26834,3.5 -0.73899,-4 z m -125.839794,0.91667 c -0.21019,-5.11376 0.33949,-14.33354 1.06818,-17.91667 0.49883,-2.45286 0.6048,0.44803 0.27397,7.5 -0.48693,10.3796 -1.13647,15.42075 -1.34215,10.41667 z M 183.33198,198.43681 c -3.53616,-6.76798 -5.58947,-12.74787 -6.52401,-19 -0.94951,-6.35231 -2.42013,-10.34008 -5.25794,-14.25756 -1.89741,-2.6193 -4.23962,-8.57988 -6.58346,-16.75397 l -3.63822,-12.68817 2.02273,-2.1531 c 3.49298,-3.71811 6.9374,-12.65519 10.85346,-28.161 2.08166,-8.24241 4.34733,-15.34606 5.03483,-15.78589 0.75152,-0.48078 1.25,-2.9927 1.25,-6.29889 l 0,-5.499208 -4.25,-1.929146 c -5.16673,-2.345264 -7.34805,-2.462913 -8.125,-0.438216 -0.52323,1.363525 -0.87187,1.349498 -3.12325,-0.125667 -1.83009,-1.199121 -3.91908,-1.527458 -7.51801,-1.181646 l -4.98374,0.478874 0,-7.321823 c 0,-6.392694 -0.20934,-7.241491 -1.64968,-6.688782 -1.39618,0.535765 -1.52992,0.185202 -0.87033,-2.281385 2.67379,-9.998835 2.00168,-21.207073 -1.49493,-24.929882 -1.2928,-1.376421 -1.60723,-2.477849 -0.9917,-3.473795 0.75403,-1.220054 1.31135,-1.07312 3.41085,0.899262 4.1613,3.909341 5.54903,14.368356 3.03074,22.842059 -0.57207,1.924924 -0.10753,2.476404 3.19788,3.796396 18.11514,7.234152 24.36717,10.913561 24.36717,14.340429 0,0.941108 0.43028,2.141381 0.95617,2.667274 2.89995,2.899955 14.36081,35.001186 16.58149,46.443836 1.9536,10.06644 5.54835,22 6.62707,22 0.48035,0 0.61412,-1.2375 0.29726,-2.75 l -0.57611,-2.75 1.52163,2.5 c 1.74884,2.87331 2.05759,6 0.59249,6 -0.55,0 -1,0.62809 -1,1.39575 0,1.18699 -8.62101,7.60425 -10.21562,7.60425 -0.29729,0 -1.56475,-2.73874 -2.81658,-6.08609 l -2.27604,-6.08609 -1.45921,3.33609 c -0.82893,1.89512 -1.66706,2.78165 -1.94042,2.05247 -0.26467,-0.70599 0.0863,-1.96747 0.78,-2.80329 0.69366,-0.83581 1.2612,-3.63318 1.2612,-6.21637 0,-4.31483 0.0776,-4.46391 0.95439,-1.83357 0.67792,2.03376 1.18784,2.48541 1.76031,1.55914 0.45067,-0.72921 0.23822,-2.43209 -0.48197,-3.86316 -0.70835,-1.40752 -1.57194,-4.41617 -1.91909,-6.68588 -0.34715,-2.26971 -1.93891,-7.21971 -3.53724,-11 -2.19692,-5.19605 -2.84088,-8.14785 -2.63897,-12.09663 0.19203,-3.7554 -0.36352,-6.56579 -1.97676,-10 -2.61567,-5.56816 -2.64309,-5.51489 -4.52197,8.78411 -0.94322,7.17831 -0.8703,9.54315 0.45155,14.64435 0.86703,3.34598 1.57642,7.34958 1.57642,8.89688 0,1.54729 1.8628,7.7426 4.13956,13.76735 3.49453,9.24719 3.94835,11.26028 2.91241,12.91908 -1.00862,1.61505 -0.9348,2.25408 0.41447,3.5883 1.51467,1.49776 1.59422,1.49763 1.02858,-0.002 -0.46573,-1.23448 -0.002,-1.625 1.92772,-1.625 1.39743,0 2.29828,0.39239 2.00187,0.87198 -0.70717,1.14423 2.98479,-0.29026 10.46376,-4.06563 3.33003,-1.68068 6.29243,-3.05604 6.58311,-3.05604 0.29069,0 0.52852,1.57115 0.52852,3.49145 0,3.18915 -0.4762,3.7602 -5.5,6.59546 -3.025,1.7072 -5.5,3.53761 -5.5,4.06757 0,0.52995 -0.44809,0.68662 -0.99575,0.34815 -0.54766,-0.33847 -1.56016,0.6413 -2.25,2.17727 -1.43357,3.19194 -4.28166,6.3201 -5.75425,6.3201 -0.55,0 -1,0.48214 -1,1.07143 0,0.58928 -0.675,1.74643 -1.5,2.57143 -2.35785,2.35785 -1.96781,10.47788 0.63763,13.2745 1.25117,1.34297 1.72795,2.56158 1.14971,2.93856 -1.94626,1.26886 -3.24299,4.78843 -2.16236,5.86906 0.56726,0.56726 0.8837,2.3237 0.7032,3.9032 -0.29889,2.61555 -0.65456,2.24716 -3.98557,-4.12818 z m -115.232314,0 c 0.82247,-3.67693 1.39482,-4.47511 1.37438,-1.91667 -0.008,1.05417 -0.47209,2.59167 -1.03037,3.41667 -0.74131,1.09546 -0.83409,0.69092 -0.34401,-1.5 z m 4.74202,-7.55757 c -1.18122,-0.44125 -2.46243,-1.31157 -2.84714,-1.93404 -0.3847,-0.62246 -1.72479,-1.52159 -2.97798,-1.99805 -1.73843,-0.66095 -2.44092,-1.94931 -2.96369,-5.43538 -0.37685,-2.513 -0.41021,-5.01399 -0.0742,-5.55775 0.33607,-0.54377 0.7807,-6.95759 0.98808,-14.25294 0.20738,-7.29535 1.07813,-16.18927 1.93502,-19.76427 1.92199,-8.01871 1.9355,-8.53368 0.18584,-7.08159 -1.14492,0.9502 -1.72379,0.28571 -3.16009,-3.62756 -0.96713,-2.63497 -2.32295,-5.26237 -3.01295,-5.83867 -0.69,-0.5763 -1.93124,-2.6013 -2.75833,-4.5 l -1.50379,-3.45218 -0.0913,5 c -0.0554,3.03086 -1.04988,7.05883 -2.52525,10.22774 -2.10151,4.51379 -2.35477,6.17185 -1.85437,12.1406 0.31875,3.80208 0.27054,8.14405 -0.10713,9.64883 l -0.68669,2.73597 -2.19918,-1.98355 c -1.20955,-1.09095 -4.89918,-3.80781 -8.19918,-6.03747 -7.43513,-5.02357 -17.30774,-15.17726 -20.887422,-21.48212 -1.483289,-2.6125 -3.285811,-4.75 -4.005605,-4.75 -1.273157,0 -14.0295247,-9.18748 -14.8967477,-10.72904 -1.82389697,-3.24213 -1.56439897,-6.325 0.754255,-8.96065 1.8762754,-2.13278 2.4799324,-2.40691 2.5039144,-1.13704 0.05882,3.11469 5.0929,8.04147 17.9092453,17.52753 2.54122,1.88089 9.12236,4.41564 9.12236,3.51351 0,-0.44689 -1.4625,-1.3591 -3.25,-2.02712 -1.7875,-0.66803 -4.78495,-2.49347 -6.661,-4.05653 l -3.411003,-2.84194 2.535294,-3.39436 c 2.397039,-3.20926 9.829149,-17.19546 13.255759,-24.94551 2.44464,-5.529092 21.9787,-26.635534 28.62983,-30.934367 6.25828,-4.044926 12.01742,-5.464591 26.16826,-6.450649 l 7.767145,-0.541229 -0.26715,25.143772 -0.26714,25.143773 -4.999995,1.68611 c -2.75,0.92735 -6.3079,2.00881 -7.90643,2.40323 l -2.90643,0.71714 0.72373,-18.30832 c 0.39806,-10.069573 0.80595,-19.433314 0.90643,-20.808314 0.17026,-2.329811 -0.0872,-2.475988 -3.78217,-2.147279 -2.18068,0.193996 -4.43068,0.927829 -5,1.630741 -0.56932,0.702911 -3.97154,3.244187 -7.56048,5.647279 -15.44728,10.343232 -20.97465,16.340663 -20.97465,22.758363 0,1.64608 -0.38003,3.22773 -0.8445,3.51479 -0.46448,0.28707 -0.9277,3.06791 -1.02938,6.17966 -0.10169,3.11175 -0.65812,6.54198 -1.23652,7.62273 -0.57841,1.08076 -0.87022,2.14644 -0.64848,2.36818 0.54129,0.54129 4.86213,-7.20945 4.60083,-8.253 -0.4355,-1.73928 2.5339,-9.32146 3.65055,-9.32146 2.7978,0 19.94911,-13.476452 19.03457,-14.956202 -0.56391,-0.912427 1.24566,-3.604406 1.94967,-2.900396 0.32201,0.322018 0.85788,8.183988 1.19081,17.471048 0.57616,16.0721 1.39904,21.08046 3.27324,19.92214 0.46224,-0.28568 1.57503,0.60172 2.47288,1.972 0.90639,1.38332 1.16309,2.49141 0.57716,2.49141 -0.58041,0 -1.47369,-1.0125 -1.98509,-2.25 -0.82084,-1.98631 -0.92543,-1.83982 -0.89247,1.25 0.0205,1.925 -0.27826,6.66034 -0.66398,10.52298 -0.58254,5.83372 -0.42712,7.25053 0.91785,8.36676 1.2055,1.00047 1.46392,2.31455 1.01153,5.14365 -0.49797,3.1141 -0.13982,4.41321 1.98451,7.19835 2.50344,3.28217 2.55114,3.60159 1.39378,9.33337 -1.62576,8.05157 -1.57144,23.30542 0.0935,26.27054 1.5907,2.83281 2.76112,2.17571 1.22781,-0.68932 -0.71616,-1.33815 -0.74364,-2.23514 -0.081,-2.64466 0.55148,-0.34084 1.03823,0.19435 1.08165,1.18931 0.0458,1.0495 0.29071,1.2842 0.58333,0.55902 0.27741,-0.6875 0.90276,-1.25 1.38967,-1.25 0.4869,0 0.6192,0.6934 0.29398,1.54089 -0.32521,0.8475 -0.19859,1.46921 0.28139,1.38158 4.37931,-0.79947 4.30149,1.26419 -0.12732,3.37614 -1.925,0.91797 -3.5,2.20131 -3.5,2.85188 0,0.65056 -0.27127,0.91157 -0.60282,0.58002 -0.33156,-0.33155 -1.56906,-0.23899 -2.75,0.20568 -1.18095,0.44468 -3.11363,0.44749 -4.29485,0.006 z M 49.316456,139.6352 c 0.61366,-4.50911 1.60217,-13.11699 2.19669,-19.12861 0.59452,-6.01162 1.28789,-11.26506 1.54082,-11.67431 0.7529,-1.21823 -2.88905,-1.5919 -5.3146,-0.54529 -1.8317,0.79036 -2.25,1.76664 -2.25,5.25132 0,2.35426 -0.45682,4.5628 -1.01515,4.90786 -0.55834,0.34507 -1.66714,2.18783 -2.46402,4.09501 -1.51543,3.62695 -7.35626,7.0565 -10.17542,5.97468 -0.78162,-0.29993 -1.68602,0.14498 -2.00978,0.98869 -0.69462,1.81014 3.52624,6.69924 5.22185,6.04858 1.26203,-0.48429 7.0904,8.05969 6.70218,9.82492 -0.27595,1.25474 3.69281,3.34118 5.34602,2.81048 0.60812,-0.19521 1.60776,-4.04421 2.22141,-8.55333 z m 13.58624,-23.18767 c -0.30542,-1.21691 -1.33099,-2.08215 -2.46796,-2.08215 -2.37228,0 -2.39079,0.41774 -0.25508,5.75542 l 1.6903,4.22446 0.77766,-2.90779 c 0.42772,-1.59929 0.5425,-3.84476 0.25508,-4.98994 z m -24.4493,-1.92739 c 0.0453,-2.41484 -0.2174,-2.10733 -2.91894,3.41667 l -2.20074,4.5 2.54186,-3 c 1.39802,-1.65 2.55804,-3.8625 2.57782,-4.91667 z m 24.3703,-7.52381 c -0.9915,-1.14342 -3.54815,2.93733 -2.89007,4.61294 0.61925,1.57674 0.89301,1.41584 1.99488,-1.17246 0.70243,-1.65 1.10526,-3.19821 0.89519,-3.44048 z m -21.83433,-7.05952 c 0.99548,-1.1 1.58497,-2 1.30997,-2 -0.275,0 -1.31449,0.9 -2.30997,2 -0.99549,1.1 -1.58498,2 -1.30998,2 0.275,0 1.31449,-0.9 2.30998,-2 z m 74.499994,87.94244 c 0,-0.71771 -0.98303,-0.98768 -2.52387,-0.69313 -1.38812,0.26536 -2.71129,0.17922 -2.94036,-0.19143 -0.22907,-0.37065 1.35667,-0.77853 3.52387,-0.9064 3.70185,-0.21843 5.18151,0.96341 2.94036,2.34852 -0.55,0.33992 -1,0.089 -1,-0.55756 z m 37.24378,0.31925 c -0.69093,-0.23788 -1.07138,-0.73158 -0.84545,-1.0971 0.22593,-0.36552 -1.57127,-0.50678 -3.99377,-0.3139 -3.57773,0.28487 -4.40455,0.0391 -4.40455,-1.30901 0,-0.91284 0.45,-1.3816 1,-1.04168 0.55,0.33992 1,-0.25342 1,-1.31854 0,-1.06511 0.675,-2.49677 1.5,-3.18146 1.217,-1.01002 1.5,-0.96907 1.5,0.21704 0,2.17513 4.85322,4.14967 6.61192,2.69007 0.76345,-0.6336 1.38808,-1.75455 1.38808,-2.49101 0,-1.22498 7.87616,-4.09689 8.97328,-3.27196 0.67413,0.50687 -0.0134,5.04935 -1.06187,7.01544 -0.67855,1.27245 -0.47985,1.60154 0.8518,1.41077 0.95523,-0.13685 2.29266,-1.33366 2.97205,-2.65958 1.09483,-2.1367 1.23332,-2.1834 1.21819,-0.41077 -0.0254,2.98243 -2.08444,4.96811 -5.45345,5.25926 -1.65,0.14259 -4.575,0.41128 -6.5,0.59709 -1.925,0.18582 -4.0653,0.14322 -4.75623,-0.0947 z m -51.01257,-1.37186 c -1.20682,-0.44643 -4.565039,-0.94177 -7.462709,-1.10076 -6.633125,-0.36394 -9.004005,-2.6373 -7.551185,-7.2406 0.52916,-1.67666 1.40167,-4.93045 1.93892,-7.23064 l 0.9768,-4.18217 4.059205,1.43217 c 5.6881,2.00687 6.994709,1.70661 2.62255,-0.60267 -3.44571,-1.81996 -5.760255,-3.96516 -4.278175,-3.96516 0.986425,0 6.559315,4.03645 10.085624,7.30503 2.83796,2.63055 3.04499,3.22642 2.27386,6.54451 -1.42751,6.14232 -1.13024,7.97597 1.3539,8.35142 2.14954,0.32487 2.15904,0.36596 0.2127,0.9203 -1.12051,0.31914 -3.02468,0.21499 -4.23149,-0.23143 z m 21.49976,0.45423 c 0.67703,-0.27392 2.02703,-0.29059 3,-0.0371 0.97297,0.25354 0.41903,0.47766 -1.23097,0.49804 -1.65,0.0204 -2.44606,-0.18706 -1.76903,-0.46099 z m 16.26904,-1.34406 c -0.90129,-0.58246 -1.02463,-0.97549 -0.30902,-0.98469 0.65504,-0.008 1.4691,0.43469 1.80902,0.98469 0.7673,1.24153 0.42112,1.24153 -1.5,0 z m -55.268794,-7.91984 c -0.43497,-1.66335 -0.30483,-2.05378 0.43724,-1.31171 0.5811,0.5811 0.85979,1.64682 0.61931,2.36826 -0.24965,0.74895 -0.70294,0.29565 -1.05655,-1.05655 z m 85.347744,0.50317 c -0.0434,-1.05416 0.19292,-1.64479 0.52522,-1.3125 0.33229,0.33229 0.36781,1.19479 0.0789,1.91667 -0.31922,0.79773 -0.55618,0.56078 -0.60416,-0.60417 z m -111.573414,-2.5772 c -0.99853,-1.10337 -1.35087,-2.00613 -0.78298,-2.00613 1.25825,0 3.75241,2.85836 3.08047,3.5303 -0.26508,0.26508 -1.29895,-0.4208 -2.29749,-1.52417 z m 60.994454,-27.66278 c -12.18703,-6.4046 -16.89122,-20.14538 -10.96689,-32.03395 4.39831,-8.82626 14.75108,-13.73428 24.03789,-11.39584 11.37799,2.86501 17.80544,10.79318 17.84259,22.00857 0.016,4.83938 -0.54877,7.66007 -2.13698,10.67255 -2.3716,4.49837 -8.11895,10.01468 -11.95279,11.47231 -3.80699,1.44741 -13.48471,1.03114 -16.82382,-0.72364 z m 20.21282,-4.95261 c 5.19791,-4.14386 7.78962,-9.60631 7.77677,-16.39074 -0.0132,-6.9638 -2.60754,-12.34851 -7.74121,-16.06732 -7.43256,-5.38411 -17.3468,-5.09716 -23.74962,0.6874 -10.46777,9.457 -8.66996,25.902 3.62628,33.17046 5.76302,3.40659 14.85339,2.77313 20.08778,-1.3998 z m -15.71282,-0.93058 c 0,-0.83316 3.99041,-8.46016 4.42632,-8.46016 0.21212,0 1.07566,2.025 1.91898,4.5 l 1.5333,4.5 -3.9393,0 c -2.16661,0 -3.9393,-0.24293 -3.9393,-0.53984 z m 12.0495,-2.20169 c 0.0272,-0.41716 1.80495,-4.13347 3.95051,-8.25847 3.32725,-6.39687 3.9083,-7.06842 3.95051,-4.56572 0.0629,3.72977 -3.27877,10.68295 -5.92298,12.32419 -1.11514,0.69216 -2.00526,0.91716 -1.97804,0.5 z m -18.93592,-2.84121 c -2.5678,-3.26442 -4.43069,-9.12632 -3.96013,-12.46121 0.25842,-1.83147 1.16623,-0.30884 3.56976,5.98741 1.77276,4.6439 3.06157,8.6051 2.864,8.80266 -0.19756,0.19756 -1.31069,-0.85042 -2.47363,-2.32886 z m 15.14105,-6.93926 c -1.0503,-3.4222 -0.87121,-4.29325 2.09074,-10.16854 l 3.23945,-6.42572 1.90603,2.10614 c 1.88644,2.08449 1.86494,2.18903 -2.09074,10.16854 l -3.99678,8.06239 -1.1487,-3.74281 z m -12.75441,-6.06649 c -2.75702,-7.55928 -2.76007,-7.59611 -0.79051,-9.56566 1.96955,-1.96956 1.98652,-1.95092 4.40715,4.84035 1.89324,5.31161 2.21651,7.42455 1.46353,9.56566 -0.53156,1.51148 -1.26933,2.74814 -1.63948,2.74814 -0.37016,0 -1.91847,-3.41482 -3.44069,-7.58849 z m 7.69989,-7.16151 c -0.54755,-1.5125 -1.31472,-3.5375 -1.70482,-4.5 -0.56413,-1.39191 -0.19255,-1.75 1.81593,-1.75 5.27475,0 5.83758,0.78801 3.63981,5.096 -1.09542,2.1472 -2.16351,3.904 -2.37353,3.904 -0.21002,0 -0.82984,-1.2375 -1.37739,-2.75 z m 75.98409,12.37836 c -0.70083,-2.6794 -1.08955,-5.05633 -0.86382,-5.28206 0.81485,-0.81486 2.83529,5.51918 2.49084,7.80876 -0.26281,1.74694 -0.67773,1.10259 -1.62702,-2.5267 z M 159.91653,109.5026 c -0.36527,-1.45532 -1.7223,-2.82163 -3.37456,-3.39761 -2.17071,-0.75671 -3.00914,-1.93851 -3.9081,-5.50861 -1.88028,-7.46727 -1.64799,-8.15428 1.90233,-5.62623 1.67575,1.19325 4.82575,2.40814 7,2.69977 3.55968,0.47745 3.95317,0.81505 3.95317,3.3917 0,3.10983 -3.01101,10.87519 -4.21685,10.87519 -0.40977,0 -1.01997,-1.09539 -1.35599,-2.43421 z M 12.2181,104.99567 c -0.373882,-2.99263 -0.557973,-5.56296 -0.409093,-5.71184 0.839431,-0.83943 2.164751,5.62158 1.672386,8.15298 -0.501648,2.57913 -0.678877,2.23666 -1.263293,-2.44114 z m 6.086542,-5.84924 c -2.576595,-2.04029 -4.848795,-4.38462 -5.049333,-5.20962 -0.412084,-1.69529 3.999176,-9 5.435033,-9 0.514365,0 -0.0015,1.3155 -1.146383,2.92332 -1.771777,2.48824 -1.905231,3.3104 -0.896654,5.52398 1.946143,4.27132 8.670581,4.62686 9.435001,0.49886 0.14729,-0.79539 0.81344,-2.81764 1.48032,-4.4939 1.01685,-2.55589 0.93058,-3.64191 -0.53455,-6.72943 -1.58212,-3.334074 -1.94968,-3.570152 -3.89289,-2.500352 -3.073907,1.692272 -4.586231,1.785802 -3.995781,0.24711 0.49954,-1.301781 1.22042,-1.47624 6.349961,-1.536744 3.58733,-0.04231 7.19016,4.405556 6.38086,7.877466 -0.7083,3.03859 -7.51219,16.21136 -8.3413,16.14931 -0.29676,-0.0222 -2.64769,-1.70971 -5.224284,-3.75 z M 5.4893617,98.99583 c 0,-0.51754 0.444846,-1.21592 0.988546,-1.55194 0.56686,-0.35034 0.734508,0.0511 0.393011,0.94098 -0.664791,1.73242 -1.381557,2.04939 -1.381557,0.61096 z M 8.5560307,93.327 c 0.567182,-1.7104 2.4137713,-4.4104 4.1035313,-6 l 3.072291,-2.89019 -1.568588,3 c -0.862724,1.65 -2.709313,4.35 -4.103532,6 l -2.5349433,3 1.031241,-3.10981 z M 21.489366,92.93681 c 0,-0.55 0.19844,-1 0.44098,-1 0.24254,0 0.7191,0.45 1.05902,1 0.33992,0.55 0.14147,1 -0.44099,1 -0.58246,0 -1.05901,-0.45 -1.05901,-1 z M 131.48936,90.90543 c 0,-1.08322 0.67464,-1.96862 1.5,-1.96862 0.825,0 1.5,0.62686 1.5,1.39301 0,0.76616 -0.675,1.65203 -1.5,1.96862 -1.02029,0.39152 -1.5,-0.054 -1.5,-1.39301 z m -12,-1 c 0,-1.08322 0.67464,-1.96862 1.5,-1.96862 0.825,0 1.5,0.62686 1.5,1.39301 0,0.76616 -0.675,1.65203 -1.5,1.96862 -1.02029,0.39152 -1.5,-0.054 -1.5,-1.39301 z m 4,0.0314 c 0,-1.1 0.45,-2 1,-2 0.55,0 1,0.9 1,2 0,1.1 -0.45,2 -1,2 -0.55,0 -1,-0.9 -1,-2 z m 3,-0.10699 c 0,-1.51045 0.44784,-1.93514 1.58179,-1.5 0.86998,0.33385 1.76998,0.60699 2,0.60699 0.23001,0 0.41821,0.675 0.41821,1.5 0,0.83333 -0.88889,1.5 -2,1.5 -1.36719,0 -2,-0.66667 -2,-2.10699 z M 21.042146,89.02224 c -0.321973,-0.52097 -0.15916,-1.21065 0.36181,-1.53262 0.52096,-0.32198 1.21064,-0.15917 1.53262,0.3618 0.32198,0.52097 0.15916,1.21065 -0.3618,1.53262 -0.52097,0.32198 -1.21065,0.15917 -1.53263,-0.3618 z M 129.98936,85.93681 c -0.33992,-0.55 0.057,-1 0.88197,-1 0.825,0 1.77811,0.45 2.11803,1 0.33992,0.55 -0.057,1 -0.88197,1 -0.825,0 -1.77811,-0.45 -2.11803,-1 z M 34.140026,71.468831 c -0.30982,-0.807386 -0.13297,-1.733944 0.39301,-2.059017 0.52598,-0.325073 0.95633,0.335516 0.95633,1.467975 0,2.414565 -0.55611,2.658155 -1.34934,0.591042 z m 90.349334,-7.982335 c 0,-0.79767 0.7875,-1.908986 1.75,-2.469591 1.34532,-0.783578 0.36253,-1.062509 -4.25,-1.206214 -9.95942,-0.31029 -11.05408,-0.497401 -14.37026,-2.456316 -2.27977,-1.346697 -3.58435,-3.174765 -4.5682,-6.401293 -0.75741,-2.483952 -2.13333,-6.284381 -3.057589,-8.445398 -1.61662,-3.779819 -1.60537,-3.988815 0.296069,-5.5 1.18834,-0.944452 2.23088,-3.371485 2.61434,-6.086231 0.75054,-5.313422 4.15424,-11.272427 5.07224,-8.880174 0.31892,0.831111 -0.10344,4.410105 -0.93859,7.953319 -2.50229,10.616277 -1.18444,25.595148 2.35363,26.751765 1.07515,0.351471 1.2151,-0.09709 0.60081,-1.925676 -0.44046,-1.311135 -0.98627,-7.783881 -1.21291,-14.383881 -0.35836,-10.436104 -0.2318,-11.739351 0.97118,-10 0.76078,1.1 1.97749,3.575 2.70379,5.5 2.76174,7.319794 5.57311,12.653532 8.96056,17 4.03614,5.178796 5.12691,6.085907 6.38395,5.309017 0.49748,-0.307459 0.29396,-0.945876 -0.45226,-1.418704 -0.9835,-0.623177 -0.66898,-0.90749 1.14324,-1.033444 1.375,-0.09557 3.25488,-0.113542 4.17751,-0.03995 3.79563,0.302767 12.8225,-13.887461 12.8225,-20.156931 0,-1.974045 0.0942,-1.99439 1.71749,-0.371067 2.23958,2.239577 2.87266,13.617298 1.08805,19.554461 -1.10796,3.686069 -1.91089,4.574893 -5.30554,5.873148 -2.2,0.841371 -6.025,1.742977 -8.50001,2.00357 -2.475,0.260593 -4.9275,0.880176 -5.45,1.376852 -1.49544,1.421533 -4.55,1.054139 -4.55,-0.547262 z m 2.66667,-10.71713 c -1.00834,-1.099574 -1.68334,-2.089062 -1.5,-2.198861 0.18333,-0.109799 1.06379,-0.755063 1.95658,-1.43392 2.27257,-1.728011 4.87675,-0.442562 4.87675,2.40721 0,1.316156 -0.1882,2.393011 -0.41821,2.393011 -0.23002,0 -1.01752,0.187152 -1.75,0.415894 -0.73249,0.228741 -2.15679,-0.483759 -3.16512,-1.583334 z m -1.32469,-6.281368 c 0.33119,-0.863066 -0.19471,-1.687062 -1.30078,-2.038117 -1.55235,-0.492695 -7.00053,-6.001282 -11.20464,-11.328861 -2.28173,-2.891476 0.40598,-2.260726 5.59487,1.313002 4.73272,3.259548 6.0322,3.703936 9.47912,3.241607 2.19699,-0.294678 5.5925,0.01358 7.54559,0.685014 l 3.55105,1.220792 -2.25359,2.01592 c -3.00477,2.68787 -9.18455,6.339451 -10.72862,6.339451 -0.68143,0 -0.98878,-0.651964 -0.683,-1.448808 z m 2.90802,-13.213473 c -0.6875,-0.277412 -1.25,-1.141886 -1.25,-1.921052 0,-1.49838 0.94884,-1.769136 5,-1.426777 3.7364,0.315757 4.51608,1.15958 2.46036,2.662753 -1.87077,1.367938 -3.94971,1.59727 -6.21036,0.685076 z m -3,-6.494146 c -5.66758,-1.281902 -5.3986,-2.83366 0.5,-2.884568 2.6125,-0.02255 7.56266,-0.135047 11.00038,-0.25 4.59051,-0.153501 6.25026,0.138619 6.25,1.100012 -2.1e-4,0.719959 -0.47008,1.018719 -1.04417,0.66391 -0.5741,-0.354809 -1.63466,-0.154745 -2.35681,0.444586 -1.88415,1.563707 -9.38889,2.048036 -14.3494,0.92606 z m 16.51319,-5.961004 c -3.21284,-4.980111 -2.78065,-6.354586 0.85495,-2.718987 1.57802,1.578023 2.42814,3.400807 2.21969,4.759383 -0.29599,1.929224 -0.6767,1.676579 -3.07464,-2.040396 z m -22.76319,1.117431 c 0,-1.325708 3.71584,-5 5.05654,-5 0.58302,0 0.2623,1.344522 -0.71561,3 -1.69833,2.875043 -4.34093,4.09257 -4.34093,2 z m 10.44863,-2.056758 c -1.85529,-2.050076 -1.84605,-2.055967 2.84502,-1.813139 5.19911,0.269127 5.51605,0.534769 2.95636,2.477851 -2.4375,1.850316 -3.65115,1.711257 -5.80138,-0.664712 z m -26.29467,-7.912762 c 0.19032,-1.305603 0.90854,-2.559072 1.59604,-2.785485 1.79918,-0.592521 1.54099,2.268617 -0.34604,3.834713 -1.39347,1.156475 -1.55212,1.023303 -1.25,-1.049228 z m 19.59604,-4.013991 c 3.55564,-1.504495 2.62795,-2.605384 -1.8367,-2.179612 -5.45232,0.519963 -6.98078,-1.091329 -3.31418,-3.493779 2.76565,-1.812123 11.4767,-2.600613 12.90885,-1.168459 1.26773,1.267724 -0.63103,4.825361 -2.57536,4.825361 -1.06293,0 -1.82011,0.5625 -1.68261,1.25 0.14804,0.740188 -0.97355,1.345545 -2.75,1.484264 -2.73958,0.213929 -2.80468,0.151621 -0.75,-0.717775 z m 15.75001,-0.01649 c -0.33992,-0.55 0.30852,-1 1.44098,-1 1.13246,0 2.05902,0.45 2.05902,1 0,0.55 -0.64844,1 -1.44098,1 -0.79254,0 -1.7191,-0.45 -2.05902,-1 z m -38.4847,-0.690983 c 0.008,-0.444959 0.45153,-1.484017 0.98469,-2.309017 0.8354,-1.292687 0.97149,-1.266292 0.98469,0.190983 0.008,0.930041 -0.43469,1.969098 -0.98469,2.309017 -0.55,0.339919 -0.99311,0.253976 -0.98469,-0.190983 z m 35.76453,-3.04294 c -0.5643,-2.157898 1.95391,-4.266077 5.09582,-4.266077 2.05415,0 6.958,3.492419 6.10622,4.348719 -0.28497,0.286483 -2.8071,0.824521 -5.60472,1.195638 -4.51383,0.598781 -5.1441,0.454844 -5.59732,-1.27828 z"
     id="path3144"
     style="fill:#000000" />
</svg>
